<svg xmlns="http://www.w3.org/2000/svg" viewBox="0 0 697 379">
  <defs>
    <style>
      .cls-1 {
        fill: #dedede;
      }

      .cls-2 {
        fill: #5a5a5a;
      }
    </style>
  </defs>
  <g id="Group_301" data-name="Group 301" transform="translate(-503 -110)">
    <g id="Group_300" data-name="Group 300" transform="translate(45 -11)">
      <path id="Path_327" data-name="Path 327" class="cls-1" d="M0,0H697V379H0Z" transform="translate(458 121)"/>
      <path id="Path_328" data-name="Path 328" class="cls-2" d="M15.738,0H13.465L4.1-14.379H4.008Q4.2-11.848,4.2-9.738V0H2.355V-17.133h2.25l9.34,14.32h.094q-.023-.316-.105-2.033T13.875-7.3v-9.832h1.863Zm15.5-6.434a7.085,7.085,0,0,1-1.582,4.9A5.572,5.572,0,0,1,25.289.234,5.789,5.789,0,0,1,22.23-.574a5.337,5.337,0,0,1-2.062-2.32,8.087,8.087,0,0,1-.727-3.539,7.074,7.074,0,0,1,1.57-4.893,5.554,5.554,0,0,1,4.359-1.752,5.433,5.433,0,0,1,4.283,1.793A7.055,7.055,0,0,1,31.242-6.434Zm-9.785,0a6.1,6.1,0,0,0,.984,3.75,3.417,3.417,0,0,0,2.895,1.289,3.44,3.44,0,0,0,2.9-1.283,6.065,6.065,0,0,0,.99-3.756,5.968,5.968,0,0,0-.99-3.721,3.479,3.479,0,0,0-2.924-1.271,3.424,3.424,0,0,0-2.883,1.254A6.034,6.034,0,0,0,21.457-6.434ZM57.258,0V-8.355a3.468,3.468,0,0,0-.656-2.3,2.538,2.538,0,0,0-2.039-.768,3.292,3.292,0,0,0-2.684,1.043,4.957,4.957,0,0,0-.867,3.211V0H49.066V-8.355a3.468,3.468,0,0,0-.656-2.3,2.554,2.554,0,0,0-2.051-.768,3.176,3.176,0,0,0-2.678,1.1,5.93,5.93,0,0,0-.85,3.592V0H40.887V-12.844h1.582l.316,1.758h.094a3.823,3.823,0,0,1,1.553-1.465,4.744,4.744,0,0,1,2.244-.527q3.012,0,3.938,2.18h.094a4.1,4.1,0,0,1,1.664-1.594,5.163,5.163,0,0,1,2.484-.586,4.349,4.349,0,0,1,3.264,1.119A5.007,5.007,0,0,1,59.2-8.379V0ZM68.637.234A5.9,5.9,0,0,1,64.143-1.5,6.714,6.714,0,0,1,62.5-6.316a7.446,7.446,0,0,1,1.529-4.934,5.08,5.08,0,0,1,4.107-1.828,4.844,4.844,0,0,1,3.82,1.588A6.086,6.086,0,0,1,73.359-7.3v1.23H64.512a5.091,5.091,0,0,0,1.143,3.434,3.952,3.952,0,0,0,3.053,1.172,10.345,10.345,0,0,0,4.1-.867V-.6a10.3,10.3,0,0,1-1.951.639A10.965,10.965,0,0,1,68.637.234Zm-.527-11.684a3.177,3.177,0,0,0-2.467,1.008,4.646,4.646,0,0,0-1.084,2.789h6.715a4.277,4.277,0,0,0-.82-2.818A2.887,2.887,0,0,0,68.109-11.449ZM85.418-1.723h-.105A4.571,4.571,0,0,1,81.281.234a4.769,4.769,0,0,1-3.92-1.723,7.583,7.583,0,0,1-1.4-4.9,7.711,7.711,0,0,1,1.406-4.934,4.732,4.732,0,0,1,3.914-1.758,4.671,4.671,0,0,1,4.008,1.9h.152l-.082-.926-.047-.9v-5.227h1.945V0H85.676Zm-3.891.328a3.542,3.542,0,0,0,2.889-1.084,5.477,5.477,0,0,0,.9-3.5v-.41a6.445,6.445,0,0,0-.908-3.9,3.449,3.449,0,0,0-2.9-1.166,2.977,2.977,0,0,0-2.619,1.33,6.614,6.614,0,0,0-.908,3.756,6.34,6.34,0,0,0,.9,3.715A3.056,3.056,0,0,0,81.527-1.395ZM93.328,0H91.383V-12.844h1.945ZM91.219-16.324a1.292,1.292,0,0,1,.328-.979,1.147,1.147,0,0,1,.82-.311,1.146,1.146,0,0,1,.809.316,1.269,1.269,0,0,1,.34.973,1.289,1.289,0,0,1-.34.979,1.135,1.135,0,0,1-.809.322,1.124,1.124,0,0,1-.82-.322A1.316,1.316,0,0,1,91.219-16.324ZM105.352,0l-.387-1.828h-.094a5.4,5.4,0,0,1-1.916,1.635,5.84,5.84,0,0,1-2.385.428A4.29,4.29,0,0,1,97.576-.75a3.59,3.59,0,0,1-1.084-2.8q0-3.891,6.223-4.078l2.18-.07v-.8a3.256,3.256,0,0,0-.65-2.232,2.675,2.675,0,0,0-2.08-.721,8.475,8.475,0,0,0-3.633.984l-.6-1.488a9.141,9.141,0,0,1,2.08-.809,9.009,9.009,0,0,1,2.268-.293,4.892,4.892,0,0,1,3.4,1.02,4.256,4.256,0,0,1,1.107,3.27V0Zm-4.395-1.371a3.948,3.948,0,0,0,2.854-1,3.685,3.685,0,0,0,1.037-2.789v-1.16l-1.945.082a7.076,7.076,0,0,0-3.346.721,2.173,2.173,0,0,0-1.025,1.986,2,2,0,0,0,.639,1.605A2.651,2.651,0,0,0,100.957-1.371ZM124.934,0l-.387-1.828h-.094a5.4,5.4,0,0,1-1.916,1.635,5.84,5.84,0,0,1-2.385.428,4.29,4.29,0,0,1-2.994-.984,3.59,3.59,0,0,1-1.084-2.8q0-3.891,6.223-4.078l2.18-.07v-.8a3.256,3.256,0,0,0-.65-2.232,2.675,2.675,0,0,0-2.08-.721,8.475,8.475,0,0,0-3.633.984l-.6-1.488a9.141,9.141,0,0,1,2.08-.809,9.009,9.009,0,0,1,2.268-.293,4.892,4.892,0,0,1,3.4,1.02,4.256,4.256,0,0,1,1.107,3.27V0Zm-4.395-1.371a3.948,3.948,0,0,0,2.854-1,3.685,3.685,0,0,0,1.037-2.789v-1.16l-1.945.082a7.076,7.076,0,0,0-3.346.721,2.173,2.173,0,0,0-1.025,1.986,2,2,0,0,0,.639,1.605A2.651,2.651,0,0,0,120.539-1.371ZM133.2,0,128.32-12.844h2.086l2.766,7.617a36.053,36.053,0,0,1,1.1,3.469h.094a26.2,26.2,0,0,1,.814-2.572q.686-1.951,3.076-8.514h2.086L135.469,0ZM150.3,0l-.387-1.828h-.094a5.4,5.4,0,0,1-1.916,1.635,5.84,5.84,0,0,1-2.385.428,4.29,4.29,0,0,1-2.994-.984,3.59,3.59,0,0,1-1.084-2.8q0-3.891,6.223-4.078l2.18-.07v-.8a3.256,3.256,0,0,0-.65-2.232,2.675,2.675,0,0,0-2.08-.721,8.475,8.475,0,0,0-3.633.984l-.6-1.488a9.141,9.141,0,0,1,2.08-.809,9.009,9.009,0,0,1,2.268-.293,4.892,4.892,0,0,1,3.4,1.02,4.256,4.256,0,0,1,1.107,3.27V0ZM145.91-1.371a3.948,3.948,0,0,0,2.854-1A3.685,3.685,0,0,0,149.8-5.156v-1.16l-1.945.082a7.076,7.076,0,0,0-3.346.721,2.173,2.173,0,0,0-1.025,1.986,2,2,0,0,0,.639,1.605A2.651,2.651,0,0,0,145.91-1.371ZM157.7,0h-1.945V-12.844H157.7ZM155.59-16.324a1.292,1.292,0,0,1,.328-.979,1.147,1.147,0,0,1,.82-.311,1.146,1.146,0,0,1,.809.316,1.269,1.269,0,0,1,.34.973,1.289,1.289,0,0,1-.34.979,1.135,1.135,0,0,1-.809.322,1.124,1.124,0,0,1-.82-.322A1.316,1.316,0,0,1,155.59-16.324ZM163.77,0h-1.945V-18.234h1.945Zm12.023,0-.387-1.828h-.094A5.4,5.4,0,0,1,173.4-.193a5.84,5.84,0,0,1-2.385.428,4.29,4.29,0,0,1-2.994-.984,3.59,3.59,0,0,1-1.084-2.8q0-3.891,6.223-4.078l2.18-.07v-.8a3.256,3.256,0,0,0-.65-2.232,2.675,2.675,0,0,0-2.08-.721,8.475,8.475,0,0,0-3.633.984l-.6-1.488a9.141,9.141,0,0,1,2.08-.809,9.009,9.009,0,0,1,2.268-.293,4.892,4.892,0,0,1,3.4,1.02,4.256,4.256,0,0,1,1.107,3.27V0ZM171.4-1.371a3.948,3.948,0,0,0,2.854-1,3.685,3.685,0,0,0,1.037-2.789v-1.16l-1.945.082A7.076,7.076,0,0,0,170-5.514a2.173,2.173,0,0,0-1.025,1.986,2,2,0,0,0,.639,1.605A2.651,2.651,0,0,0,171.4-1.371Zm15.82-11.684a4.775,4.775,0,0,1,3.932,1.729,7.587,7.587,0,0,1,1.4,4.893,7.642,7.642,0,0,1-1.412,4.916,4.755,4.755,0,0,1-3.92,1.752,5.558,5.558,0,0,1-2.291-.463,4.309,4.309,0,0,1-1.74-1.424h-.141L182.637,0h-1.395V-18.234h1.945v4.43q0,1.488-.094,2.672h.094A4.618,4.618,0,0,1,187.219-13.055Zm-.281,1.629a3.4,3.4,0,0,0-2.871,1.143,6.445,6.445,0,0,0-.879,3.85,6.428,6.428,0,0,0,.9,3.873,3.432,3.432,0,0,0,2.895,1.166A3,3,0,0,0,189.656-2.7a6.716,6.716,0,0,0,.879-3.756,6.454,6.454,0,0,0-.879-3.738A3.115,3.115,0,0,0,186.938-11.426ZM197.895,0h-1.945V-18.234h1.945Zm9.551.234A5.9,5.9,0,0,1,202.951-1.5,6.714,6.714,0,0,1,201.3-6.316a7.446,7.446,0,0,1,1.529-4.934,5.08,5.08,0,0,1,4.107-1.828,4.844,4.844,0,0,1,3.82,1.588A6.086,6.086,0,0,1,212.168-7.3v1.23H203.32a5.091,5.091,0,0,0,1.143,3.434,3.952,3.952,0,0,0,3.053,1.172,10.345,10.345,0,0,0,4.1-.867V-.6a10.3,10.3,0,0,1-1.951.639A10.965,10.965,0,0,1,207.445.234Zm-.527-11.684a3.177,3.177,0,0,0-2.467,1.008,4.646,4.646,0,0,0-1.084,2.789h6.715a4.277,4.277,0,0,0-.82-2.818A2.887,2.887,0,0,0,206.918-11.449Z" transform="translate(705 339)"/>
      <path id="exclamation-triangle-solid" class="cls-2" d="M87.435,67.553A7.373,7.373,0,0,1,81.051,78.6H7.377A7.373,7.373,0,0,1,.994,67.553L37.832,3.682a7.374,7.374,0,0,1,12.766,0l36.837,63.87ZM44.215,54.348a7.062,7.062,0,1,0,7.062,7.062A7.062,7.062,0,0,0,44.215,54.348Zm-6.7-25.385,1.139,20.879a1.842,1.842,0,0,0,1.84,1.742h7.453a1.842,1.842,0,0,0,1.84-1.742L50.92,28.963a1.842,1.842,0,0,0-1.84-1.943H39.349a1.842,1.842,0,0,0-1.839,1.943Z" transform="translate(763 223.396)"/>
    </g>
  </g>
</svg>
