<svg xmlns="http://www.w3.org/2000/svg" viewBox="0 0 697 379">
  <defs>
    <style>
      .cls-1 {
        fill: #5a5a5a;
      }

      .cls-2 {
        fill: #c7c7c7;
      }
    </style>
  </defs>
  <g id="Group_300" data-name="Group 300" transform="translate(-458 -121)">
    <path id="Path_327" data-name="Path 327" class="cls-1" d="M0,0H697V379H0Z" transform="translate(458 121)"/>
    <path id="Path_328" data-name="Path 328" class="cls-2" d="M16.535,0H13.1L4.676-13.652H4.582l.059.762q.164,2.18.164,3.984V0H2.262V-17.133h3.4l8.4,13.582h.07q-.023-.27-.094-1.963t-.07-2.643v-8.977h2.566ZM32.262-6.5a7.074,7.074,0,0,1-1.629,4.957A5.836,5.836,0,0,1,26.1.234a6.214,6.214,0,0,1-3.211-.82,5.416,5.416,0,0,1-2.145-2.355,8.022,8.022,0,0,1-.75-3.562,7.026,7.026,0,0,1,1.617-4.922,5.864,5.864,0,0,1,4.559-1.77,5.71,5.71,0,0,1,4.453,1.811A6.994,6.994,0,0,1,32.262-6.5Zm-9.434,0q0,4.488,3.316,4.488,3.281,0,3.281-4.488,0-4.441-3.3-4.441A2.818,2.818,0,0,0,23.607-9.8,5.844,5.844,0,0,0,22.828-6.5ZM52.582,0H49.816V-7.992a3.624,3.624,0,0,0-.562-2.221,2.076,2.076,0,0,0-1.758-.732,2.681,2.681,0,0,0-2.338,1.037,6.085,6.085,0,0,0-.744,3.451V0H41.66V-12.961h2.156l.387,1.7h.141a3.591,3.591,0,0,1,1.564-1.43,5.045,5.045,0,0,1,2.256-.5q2.988,0,3.961,2.039h.188a3.951,3.951,0,0,1,1.617-1.5A5.132,5.132,0,0,1,56.32-13.2,4.353,4.353,0,0,1,59.7-12.023a5.19,5.19,0,0,1,1.061,3.574V0H58.008V-7.992a3.6,3.6,0,0,0-.568-2.221,2.093,2.093,0,0,0-1.764-.732,2.734,2.734,0,0,0-2.35,1,5.165,5.165,0,0,0-.744,3.076ZM70.266.234a6.27,6.27,0,0,1-4.729-1.764,6.7,6.7,0,0,1-1.705-4.857,7.346,7.346,0,0,1,1.582-4.992A5.464,5.464,0,0,1,69.762-13.2a5.341,5.341,0,0,1,4.055,1.559A5.956,5.956,0,0,1,75.3-7.348v1.488H66.668a4.257,4.257,0,0,0,1.02,2.9,3.551,3.551,0,0,0,2.707,1.014,9.993,9.993,0,0,0,2.139-.217,11.21,11.21,0,0,0,2.127-.721V-.645a8.455,8.455,0,0,1-2.039.68A12.5,12.5,0,0,1,70.266.234Zm-.5-11.344a2.767,2.767,0,0,0-2.1.832,3.965,3.965,0,0,0-.943,2.426H72.6a3.588,3.588,0,0,0-.773-2.432A2.645,2.645,0,0,0,69.762-11.109ZM82.8.234A4.514,4.514,0,0,1,79.02-1.523,7.9,7.9,0,0,1,77.66-6.457a7.927,7.927,0,0,1,1.377-4.963A4.557,4.557,0,0,1,82.852-13.2a4.468,4.468,0,0,1,3.891,1.887h.141a16.508,16.508,0,0,1-.2-2.2v-4.723h2.766V0H87.293l-.48-1.7h-.129A4.4,4.4,0,0,1,82.8.234Zm.738-2.227a3,3,0,0,0,2.473-.955,5.028,5.028,0,0,0,.8-3.1v-.387a5.809,5.809,0,0,0-.8-3.48,2.956,2.956,0,0,0-2.5-1.031,2.532,2.532,0,0,0-2.238,1.178A6.036,6.036,0,0,0,80.5-6.41a5.885,5.885,0,0,0,.762,3.287A2.572,2.572,0,0,0,83.543-1.992ZM96.141,0H93.387V-12.961h2.754ZM93.223-16.395a1.525,1.525,0,0,1,.4-1.137,1.575,1.575,0,0,1,1.154-.4,1.542,1.542,0,0,1,1.131.4,1.525,1.525,0,0,1,.4,1.137,1.5,1.5,0,0,1-.4,1.107,1.529,1.529,0,0,1-1.131.4,1.562,1.562,0,0,1-1.154-.4A1.5,1.5,0,0,1,93.223-16.395ZM108.188,0l-.551-1.8h-.094a5.31,5.31,0,0,1-1.887,1.611,5.967,5.967,0,0,1-2.437.428A4.125,4.125,0,0,1,100.236-.8a3.859,3.859,0,0,1-1.072-2.918,3.426,3.426,0,0,1,1.488-3.023,8.581,8.581,0,0,1,4.535-1.113l2.238-.07v-.691a2.621,2.621,0,0,0-.58-1.857,2.366,2.366,0,0,0-1.8-.615,6.22,6.22,0,0,0-1.91.293,14.415,14.415,0,0,0-1.758.691l-.891-1.969a9.585,9.585,0,0,1,2.309-.838,10.624,10.624,0,0,1,2.367-.287,5.606,5.606,0,0,1,3.732,1.078,4.221,4.221,0,0,1,1.26,3.387V0Zm-4.1-1.875a3.411,3.411,0,0,0,2.408-.838,3.037,3.037,0,0,0,.908-2.35V-6.187l-1.664.07a5.694,5.694,0,0,0-2.83.65,1.976,1.976,0,0,0-.885,1.775,1.732,1.732,0,0,0,.516,1.342A2.215,2.215,0,0,0,104.086-1.875ZM128.344,0l-.551-1.8H127.7a5.31,5.31,0,0,1-1.887,1.611,5.967,5.967,0,0,1-2.437.428A4.125,4.125,0,0,1,120.393-.8a3.859,3.859,0,0,1-1.072-2.918,3.426,3.426,0,0,1,1.488-3.023,8.581,8.581,0,0,1,4.535-1.113l2.238-.07v-.691a2.621,2.621,0,0,0-.58-1.857,2.366,2.366,0,0,0-1.8-.615,6.22,6.22,0,0,0-1.91.293,14.415,14.415,0,0,0-1.758.691l-.891-1.969a9.585,9.585,0,0,1,2.309-.838,10.624,10.624,0,0,1,2.367-.287,5.606,5.606,0,0,1,3.732,1.078,4.221,4.221,0,0,1,1.26,3.387V0Zm-4.1-1.875a3.411,3.411,0,0,0,2.408-.838,3.037,3.037,0,0,0,.908-2.35V-6.187l-1.664.07a5.694,5.694,0,0,0-2.83.65,1.976,1.976,0,0,0-.885,1.775A1.732,1.732,0,0,0,122.7-2.35,2.215,2.215,0,0,0,124.242-1.875ZM137.109,0l-4.922-12.961h2.906l2.637,7.535a14.931,14.931,0,0,1,.82,3.07h.094a20.616,20.616,0,0,1,.82-3.07l2.637-7.535h2.93L140.086,0Zm18,0-.551-1.8h-.094a5.31,5.31,0,0,1-1.887,1.611,5.967,5.967,0,0,1-2.437.428A4.125,4.125,0,0,1,147.158-.8a3.859,3.859,0,0,1-1.072-2.918,3.426,3.426,0,0,1,1.488-3.023,8.581,8.581,0,0,1,4.535-1.113l2.238-.07v-.691a2.621,2.621,0,0,0-.58-1.857,2.366,2.366,0,0,0-1.8-.615,6.22,6.22,0,0,0-1.91.293,14.415,14.415,0,0,0-1.758.691l-.891-1.969a9.585,9.585,0,0,1,2.309-.838,10.624,10.624,0,0,1,2.367-.287,5.606,5.606,0,0,1,3.732,1.078,4.221,4.221,0,0,1,1.26,3.387V0Zm-4.1-1.875a3.411,3.411,0,0,0,2.408-.838,3.037,3.037,0,0,0,.908-2.35V-6.187l-1.664.07a5.694,5.694,0,0,0-2.83.65,1.976,1.976,0,0,0-.885,1.775,1.732,1.732,0,0,0,.516,1.342A2.215,2.215,0,0,0,151.008-1.875ZM163.676,0h-2.754V-12.961h2.754Zm-2.918-16.395a1.525,1.525,0,0,1,.4-1.137,1.575,1.575,0,0,1,1.154-.4,1.542,1.542,0,0,1,1.131.4,1.525,1.525,0,0,1,.4,1.137,1.5,1.5,0,0,1-.4,1.107,1.529,1.529,0,0,1-1.131.4,1.562,1.562,0,0,1-1.154-.4A1.5,1.5,0,0,1,160.758-16.395ZM170.367,0h-2.754V-18.234h2.754Zm12.047,0-.551-1.8h-.094a5.31,5.31,0,0,1-1.887,1.611,5.967,5.967,0,0,1-2.437.428A4.125,4.125,0,0,1,174.463-.8a3.859,3.859,0,0,1-1.072-2.918,3.426,3.426,0,0,1,1.488-3.023,8.581,8.581,0,0,1,4.535-1.113l2.238-.07v-.691a2.621,2.621,0,0,0-.58-1.857,2.366,2.366,0,0,0-1.8-.615,6.22,6.22,0,0,0-1.91.293,14.415,14.415,0,0,0-1.758.691l-.891-1.969a9.585,9.585,0,0,1,2.309-.838,10.624,10.624,0,0,1,2.367-.287,5.606,5.606,0,0,1,3.732,1.078,4.221,4.221,0,0,1,1.26,3.387V0Zm-4.1-1.875a3.411,3.411,0,0,0,2.408-.838,3.037,3.037,0,0,0,.908-2.35V-6.187l-1.664.07a5.694,5.694,0,0,0-2.83.65,1.976,1.976,0,0,0-.885,1.775,1.732,1.732,0,0,0,.516,1.342A2.215,2.215,0,0,0,178.313-1.875ZM194.848-13.2a4.5,4.5,0,0,1,3.779,1.758A7.926,7.926,0,0,1,199.98-6.5a7.951,7.951,0,0,1-1.371,4.963A4.541,4.541,0,0,1,194.8.234a4.54,4.54,0,0,1-3.82-1.77h-.187L190.289,0h-2.062V-18.234h2.754V-13.9q0,.48-.047,1.43t-.07,1.207h.117A4.373,4.373,0,0,1,194.848-13.2Zm-.715,2.25a2.8,2.8,0,0,0-2.4.979,5.693,5.693,0,0,0-.756,3.275V-6.5a6.062,6.062,0,0,0,.75,3.428,2.79,2.79,0,0,0,2.449,1.061,2.483,2.483,0,0,0,2.221-1.16,6.154,6.154,0,0,0,.756-3.352Q197.156-10.945,194.133-10.945ZM205.934,0H203.18V-18.234h2.754Zm9.6.234A6.27,6.27,0,0,1,210.8-1.529,6.7,6.7,0,0,1,209.1-6.387a7.346,7.346,0,0,1,1.582-4.992,5.464,5.464,0,0,1,4.348-1.816,5.341,5.341,0,0,1,4.055,1.559,5.956,5.956,0,0,1,1.488,4.289v1.488h-8.637a4.257,4.257,0,0,0,1.02,2.9,3.551,3.551,0,0,0,2.707,1.014,9.993,9.993,0,0,0,2.139-.217,11.21,11.21,0,0,0,2.127-.721V-.645a8.455,8.455,0,0,1-2.039.68A12.5,12.5,0,0,1,215.531.234Zm-.5-11.344a2.767,2.767,0,0,0-2.1.832,3.965,3.965,0,0,0-.943,2.426h5.883a3.588,3.588,0,0,0-.773-2.432A2.645,2.645,0,0,0,215.027-11.109Z" transform="translate(696 337)"/>
    <path id="exclamation-triangle-solid" class="cls-2" d="M87.435,67.553A7.373,7.373,0,0,1,81.051,78.6H7.377A7.373,7.373,0,0,1,.994,67.553L37.832,3.682a7.374,7.374,0,0,1,12.766,0l36.837,63.87ZM44.215,54.348a7.062,7.062,0,1,0,7.062,7.062A7.062,7.062,0,0,0,44.215,54.348Zm-6.7-25.385,1.139,20.879a1.842,1.842,0,0,0,1.84,1.742h7.453a1.842,1.842,0,0,0,1.84-1.742L50.92,28.963a1.842,1.842,0,0,0-1.84-1.943H39.349a1.842,1.842,0,0,0-1.839,1.943Z" transform="translate(763 223.396)"/>
  </g>
</svg>
