<svg xmlns="http://www.w3.org/2000/svg" viewBox="0 0 482.27 482.27">
  <defs>
    <style>
      .cls-1 {
        fill: #fff;
      }
    </style>
  </defs>
  <g id="Group_213" data-name="Group 213" transform="translate(-440 -166.193)">
    <g id="Group_204" data-name="Group 204" transform="translate(176 -239)">
      <rect id="Rectangle_1729-2" data-name="Rectangle 1729" class="cls-1" width="122.27" height="122.27" rx="38" transform="translate(264 405.193)"/>
    </g>
    <g id="Group_205" data-name="Group 205" transform="translate(536 121)">
      <rect id="Rectangle_1729-3" data-name="Rectangle 1729" class="cls-1" width="122.27" height="122.27" rx="38" transform="translate(264 405.193)"/>
    </g>
    <g id="Group_206" data-name="Group 206" transform="translate(356 121)">
      <rect id="Rectangle_1729-4" data-name="Rectangle 1729" class="cls-1" width="122.27" height="122.27" rx="38" transform="translate(264 405.193)"/>
    </g>
    <g id="Group_207" data-name="Group 207" transform="translate(185 121)">
      <rect id="Rectangle_1729-5" data-name="Rectangle 1729" class="cls-1" width="122.27" height="122.27" rx="38" transform="translate(264 405.193)"/>
    </g>
    <g id="Group_208" data-name="Group 208" transform="translate(536 -59)">
      <rect id="Rectangle_1729-6" data-name="Rectangle 1729" class="cls-1" width="122.27" height="122.27" rx="38" transform="translate(264 405.193)"/>
    </g>
    <g id="Group_209" data-name="Group 209" transform="translate(356 -59)">
      <rect id="Rectangle_1729-7" data-name="Rectangle 1729" class="cls-1" width="122.27" height="122.27" rx="38" transform="translate(264 405.193)"/>
    </g>
    <g id="Group_210" data-name="Group 210" transform="translate(176 -59)">
      <rect id="Rectangle_1729-8" data-name="Rectangle 1729" class="cls-1" width="122.27" height="122.27" rx="38" transform="translate(264 405.193)"/>
    </g>
    <g id="Group_211" data-name="Group 211" transform="translate(536 -239)">
      <rect id="Rectangle_1729-9" data-name="Rectangle 1729" class="cls-1" width="122.27" height="122.27" rx="38" transform="translate(264 405.193)"/>
    </g>
    <g id="Group_212" data-name="Group 212" transform="translate(356 -239)">
      <rect id="Rectangle_1729-10" data-name="Rectangle 1729" class="cls-1" width="122.27" height="122.27" rx="38" transform="translate(264 405.193)"/>
    </g>
  </g>
</svg>
