<svg xmlns="http://www.w3.org/2000/svg" width="284.802" height="190.627" viewBox="0 0 284.802 190.627">
  <g id="Group_1286" data-name="Group 1286" transform="translate(-718.65 -139.221)">
    <path id="Path_869" data-name="Path 869" d="M0,0,73.8,45.627" transform="translate(738.65 159.221)" fill="none" stroke="#fff" stroke-linecap="round" stroke-width="40"/>
    <path id="Path_873" data-name="Path 873" d="M54.57-29.1q0,14.1-8.027,21.6T23.359,0H7.188V-57.109h17.93q13.984,0,21.719,7.383T54.57-29.1Zm-12.578.313q0-18.4-16.25-18.4H19.3V-10h5.2Q41.992-10,41.992-28.789Z" transform="translate(834 262)" fill="#fff"/>
    <path id="Path_874" data-name="Path 874" d="M73.8,0,0,45.627" transform="translate(909.65 159.221)" fill="none" stroke="#fff" stroke-linecap="round" stroke-width="40"/>
    <path id="Path_875" data-name="Path 875" d="M73.8,0,0,45.627" transform="translate(738.65 264.221)" fill="none" stroke="#fff" stroke-linecap="round" stroke-width="40"/>
    <path id="Path_876" data-name="Path 876" d="M0,0,73.8,45.627" transform="translate(909.65 264.221)" fill="none" stroke="#fff" stroke-linecap="round" stroke-width="40"/>
  </g>
</svg>
