<svg xmlns="http://www.w3.org/2000/svg" width="669.393" height="527.729" viewBox="0 0 669.393 527.729">
  <g id="Group_1774" data-name="Group 1774" transform="translate(-201 -74.481)">
    <g id="Group_1773" data-name="Group 1773" transform="translate(201 74.481)">
      <path id="Path_2486" data-name="Path 2486" d="M397.273,0H0" transform="translate(141.291 449.827)" fill="none" stroke="#fff" stroke-width="80"/>
      <g id="Path_2488" data-name="Path 2488" fill="none">
        <path d="M35.825,0H123.6c19.786,0,35.825,16.405,35.825,36.642v82.445c0,20.237-16.039,36.642-35.825,36.642H35.825C16.039,155.729,0,139.324,0,119.087V36.642C0,16.405,16.039,0,35.825,0Z" stroke="none"/>
        <path d="M 62.00003051757812 62 L 62.00003051757812 93.72900390625 L 97.42086791992188 93.72900390625 L 97.42086791992188 62 L 62.00003051757812 62 M 35.824951171875 0 L 123.595947265625 0 C 143.3815307617188 0 159.4208679199219 16.40525817871094 159.4208679199219 36.64208221435547 L 159.4208679199219 119.0869140625 C 159.4208679199219 139.3237457275391 143.3815307617188 155.72900390625 123.595947265625 155.72900390625 L 35.824951171875 155.72900390625 C 16.03936767578125 155.72900390625 3.0517578125e-05 139.3237457275391 3.0517578125e-05 119.0869140625 L 3.0517578125e-05 36.64208221435547 C 3.0517578125e-05 16.40525817871094 16.03936767578125 0 35.824951171875 0 Z" stroke="none" fill="#fff"/>
      </g>
      <path id="Path_2489" data-name="Path 2489" d="M397.273,0H0" transform="translate(141.291 77.5)" fill="none" stroke="#fff" stroke-width="80"/>
      <path id="Path_2490" data-name="Path 2490" d="M0,282V0" transform="translate(79.5 136.907)" fill="none" stroke="#fff" stroke-width="80"/>
      <path id="Path_2491" data-name="Path 2491" d="M0,264.031V0" transform="translate(589.796 116.907)" fill="none" stroke="#fff" stroke-width="80"/>
      <g id="Path_2492" data-name="Path 2492" transform="translate(509.972)" fill="none">
        <path d="M35.825,0H123.6c19.786,0,35.825,16.405,35.825,36.642v82.445c0,20.237-16.039,36.642-35.825,36.642H35.825C16.039,155.729,0,139.324,0,119.087V36.642C0,16.405,16.039,0,35.825,0Z" stroke="none"/>
        <path d="M 62.00003051757812 62 L 62.00003051757812 93.72900390625 L 97.42086791992188 93.72900390625 L 97.42086791992188 62 L 62.00003051757812 62 M 35.824951171875 0 L 123.595947265625 0 C 143.3815307617188 0 159.4208679199219 16.40525817871094 159.4208679199219 36.64208221435547 L 159.4208679199219 119.0869140625 C 159.4208679199219 139.3237457275391 143.3815307617188 155.72900390625 123.595947265625 155.72900390625 L 35.824951171875 155.72900390625 C 16.03936767578125 155.72900390625 3.0517578125e-05 139.3237457275391 3.0517578125e-05 119.0869140625 L 3.0517578125e-05 36.64208221435547 C 3.0517578125e-05 16.40525817871094 16.03936767578125 0 35.824951171875 0 Z" stroke="none" fill="#fff"/>
      </g>
      <g id="Path_2493" data-name="Path 2493" transform="translate(509.972 372)" fill="none">
        <path d="M35.825,0H123.6c19.786,0,35.825,16.405,35.825,36.642v82.445c0,20.237-16.039,36.642-35.825,36.642H35.825C16.039,155.729,0,139.324,0,119.087V36.642C0,16.405,16.039,0,35.825,0Z" stroke="none"/>
        <path d="M 62.00003051757812 62 L 62.00003051757812 93.72900390625 L 97.42086791992188 93.72900390625 L 97.42086791992188 62 L 62.00003051757812 62 M 35.824951171875 0 L 123.595947265625 0 C 143.3815307617188 0 159.4208679199219 16.40525817871094 159.4208679199219 36.64208221435547 L 159.4208679199219 119.0869140625 C 159.4208679199219 139.3237457275391 143.3815307617188 155.72900390625 123.595947265625 155.72900390625 L 35.824951171875 155.72900390625 C 16.03936767578125 155.72900390625 3.0517578125e-05 139.3237457275391 3.0517578125e-05 119.0869140625 L 3.0517578125e-05 36.64208221435547 C 3.0517578125e-05 16.40525817871094 16.03936767578125 0 35.824951171875 0 Z" stroke="none" fill="#fff"/>
      </g>
      <g id="Path_2494" data-name="Path 2494" transform="translate(0 372)" fill="none">
        <path d="M35.825,0H123.6c19.786,0,35.825,16.405,35.825,36.642v82.445c0,20.237-16.039,36.642-35.825,36.642H35.825C16.039,155.729,0,139.324,0,119.087V36.642C0,16.405,16.039,0,35.825,0Z" stroke="none"/>
        <path d="M 62.00003051757812 62 L 62.00003051757812 93.72900390625 L 97.42086791992188 93.72900390625 L 97.42086791992188 62 L 62.00003051757812 62 M 35.824951171875 0 L 123.595947265625 0 C 143.3815307617188 0 159.4208679199219 16.40525817871094 159.4208679199219 36.64208221435547 L 159.4208679199219 119.0869140625 C 159.4208679199219 139.3237457275391 143.3815307617188 155.72900390625 123.595947265625 155.72900390625 L 35.824951171875 155.72900390625 C 16.03936767578125 155.72900390625 3.0517578125e-05 139.3237457275391 3.0517578125e-05 119.0869140625 L 3.0517578125e-05 36.64208221435547 C 3.0517578125e-05 16.40525817871094 16.03936767578125 0 35.824951171875 0 Z" stroke="none" fill="#fff"/>
      </g>
    </g>
  </g>
</svg>
