<svg xmlns="http://www.w3.org/2000/svg" viewBox="0 0 697 379">
  <defs>
    <style>
      .cls-1 {
        fill: #333;
      }

      .cls-2 {
        fill: #f1f1f1;
      }

      .cls-3, .cls-6 {
        fill: none;
      }

      .cls-3 {
        stroke: #f1f1f1;
      }

      .cls-4 {
        fill: red;
      }

      .cls-5 {
        fill: #fff;
      }

      .cls-6 {
        stroke: #fff;
        stroke-width: 5px;
      }
    </style>
  </defs>
  <g id="Group_305" data-name="Group 305" transform="translate(-494 -108)">
    <g id="Group_304" data-name="Group 304">
      <g id="Group_303" data-name="Group 303">
        <g id="Group_302" data-name="Group 302">
          <g id="Group_301" data-name="Group 301" transform="translate(-2)">
            <g id="Group_300" data-name="Group 300" transform="translate(38 -13)">
              <path id="Path_327" data-name="Path 327" class="cls-1" d="M0,0H697V379H0Z" transform="translate(458 121)"/>
              <path id="Path_328" data-name="Path 328" class="cls-2" d="M8.18,0h-2.8V-14.73H.34v-2.4H13.219v2.4H8.18ZM26.953,0H24.188V-7.969a3.488,3.488,0,0,0-.6-2.238,2.333,2.333,0,0,0-1.916-.738,3.041,3.041,0,0,0-2.549,1.037A5.715,5.715,0,0,0,18.3-6.434V0H15.551V-18.234H18.3v4.629a21.6,21.6,0,0,1-.141,2.379h.176A3.824,3.824,0,0,1,19.9-12.68a5.042,5.042,0,0,1,2.338-.516q4.711,0,4.711,4.746Zm6.586,0H30.785V-12.961h2.754ZM30.621-16.395a1.525,1.525,0,0,1,.4-1.137,1.575,1.575,0,0,1,1.154-.4,1.542,1.542,0,0,1,1.131.4,1.525,1.525,0,0,1,.4,1.137,1.5,1.5,0,0,1-.4,1.107,1.529,1.529,0,0,1-1.131.4,1.562,1.562,0,0,1-1.154-.4A1.5,1.5,0,0,1,30.621-16.395Zm15.563,12.7A3.391,3.391,0,0,1,44.8-.779,6.622,6.622,0,0,1,40.84.234a9.356,9.356,0,0,1-4.16-.785V-2.93a10.214,10.214,0,0,0,4.254,1.055q2.543,0,2.543-1.535a1.216,1.216,0,0,0-.281-.82,3.329,3.329,0,0,0-.926-.68,15.932,15.932,0,0,0-1.793-.8,8.294,8.294,0,0,1-3.029-1.734,3.209,3.209,0,0,1-.791-2.25A2.955,2.955,0,0,1,38-12.275a6.367,6.367,0,0,1,3.65-.92,10.339,10.339,0,0,1,4.324.926L45.082-10.2a9.618,9.618,0,0,0-3.527-.867q-2.18,0-2.18,1.242a1.25,1.25,0,0,0,.568,1.031,12.5,12.5,0,0,0,2.479,1.16,11.33,11.33,0,0,1,2.332,1.137A3.4,3.4,0,0,1,45.832-5.3,3.442,3.442,0,0,1,46.184-3.691ZM58.348,0,53.426-12.961h2.906l2.637,7.535a14.931,14.931,0,0,1,.82,3.07h.094a20.616,20.616,0,0,1,.82-3.07l2.637-7.535h2.93L61.324,0ZM70.992,0H68.238V-12.961h2.754ZM68.074-16.395a1.525,1.525,0,0,1,.4-1.137,1.575,1.575,0,0,1,1.154-.4,1.542,1.542,0,0,1,1.131.4,1.525,1.525,0,0,1,.4,1.137,1.5,1.5,0,0,1-.4,1.107,1.529,1.529,0,0,1-1.131.4,1.562,1.562,0,0,1-1.154-.4A1.5,1.5,0,0,1,68.074-16.395ZM79.3.234a4.514,4.514,0,0,1-3.785-1.758,7.9,7.9,0,0,1-1.359-4.934,7.927,7.927,0,0,1,1.377-4.963A4.557,4.557,0,0,1,79.348-13.2a4.468,4.468,0,0,1,3.891,1.887h.141a16.508,16.508,0,0,1-.2-2.2v-4.723h2.766V0H83.789l-.48-1.7H83.18A4.4,4.4,0,0,1,79.3.234Zm.738-2.227a3,3,0,0,0,2.473-.955,5.028,5.028,0,0,0,.8-3.1v-.387a5.809,5.809,0,0,0-.8-3.48,2.956,2.956,0,0,0-2.5-1.031,2.532,2.532,0,0,0-2.238,1.178,6.036,6.036,0,0,0-.785,3.357,5.885,5.885,0,0,0,.762,3.287A2.572,2.572,0,0,0,80.039-1.992ZM95.543.234a6.27,6.27,0,0,1-4.729-1.764,6.7,6.7,0,0,1-1.705-4.857,7.346,7.346,0,0,1,1.582-4.992A5.464,5.464,0,0,1,95.039-13.2a5.341,5.341,0,0,1,4.055,1.559,5.956,5.956,0,0,1,1.488,4.289v1.488H91.945a4.257,4.257,0,0,0,1.02,2.9,3.551,3.551,0,0,0,2.707,1.014,9.993,9.993,0,0,0,2.139-.217,11.21,11.21,0,0,0,2.127-.721V-.645A8.455,8.455,0,0,1,97.9.035,12.5,12.5,0,0,1,95.543.234Zm-.5-11.344a2.767,2.767,0,0,0-2.1.832,3.965,3.965,0,0,0-.943,2.426h5.883a3.588,3.588,0,0,0-.773-2.432A2.645,2.645,0,0,0,95.039-11.109ZM115.207-6.5a7.074,7.074,0,0,1-1.629,4.957A5.836,5.836,0,0,1,109.043.234a6.214,6.214,0,0,1-3.211-.82,5.416,5.416,0,0,1-2.145-2.355,8.022,8.022,0,0,1-.75-3.562,7.026,7.026,0,0,1,1.617-4.922,5.864,5.864,0,0,1,4.559-1.77,5.71,5.71,0,0,1,4.453,1.811A6.994,6.994,0,0,1,115.207-6.5Zm-9.434,0q0,4.488,3.316,4.488,3.281,0,3.281-4.488,0-4.441-3.3-4.441A2.818,2.818,0,0,0,106.553-9.8,5.844,5.844,0,0,0,105.773-6.5ZM127.359,0h-2.754V-12.961h2.754Zm-2.918-16.395a1.525,1.525,0,0,1,.4-1.137,1.575,1.575,0,0,1,1.154-.4,1.542,1.542,0,0,1,1.131.4,1.525,1.525,0,0,1,.4,1.137,1.5,1.5,0,0,1-.4,1.107,1.529,1.529,0,0,1-1.131.4,1.562,1.562,0,0,1-1.154-.4A1.5,1.5,0,0,1,124.441-16.395ZM140-3.691a3.391,3.391,0,0,1-1.383,2.912A6.622,6.622,0,0,1,134.66.234a9.356,9.356,0,0,1-4.16-.785V-2.93a10.214,10.214,0,0,0,4.254,1.055q2.543,0,2.543-1.535a1.216,1.216,0,0,0-.281-.82,3.329,3.329,0,0,0-.926-.68,15.932,15.932,0,0,0-1.793-.8,8.294,8.294,0,0,1-3.029-1.734,3.209,3.209,0,0,1-.791-2.25,2.955,2.955,0,0,1,1.342-2.584,6.367,6.367,0,0,1,3.65-.92,10.339,10.339,0,0,1,4.324.926L138.9-10.2a9.618,9.618,0,0,0-3.527-.867q-2.18,0-2.18,1.242a1.25,1.25,0,0,0,.568,1.031,12.5,12.5,0,0,0,2.479,1.16,11.33,11.33,0,0,1,2.332,1.137A3.4,3.4,0,0,1,139.652-5.3,3.442,3.442,0,0,1,140-3.691ZM158.355,0l-.387-1.7h-.141a3.907,3.907,0,0,1-1.635,1.418,5.466,5.466,0,0,1-2.42.516,4.75,4.75,0,0,1-3.516-1.172,4.858,4.858,0,0,1-1.16-3.551v-8.473h2.777v7.992a3.467,3.467,0,0,0,.609,2.232,2.326,2.326,0,0,0,1.91.744,3.041,3.041,0,0,0,2.549-1.037,5.715,5.715,0,0,0,.814-3.475v-6.457h2.766V0Zm17.5,0h-2.766V-7.969a3.488,3.488,0,0,0-.6-2.238,2.333,2.333,0,0,0-1.916-.738,3.047,3.047,0,0,0-2.555,1.031,5.694,5.694,0,0,0-.809,3.457V0h-2.754V-12.961h2.156l.387,1.7h.141a3.834,3.834,0,0,1,1.664-1.43,5.577,5.577,0,0,1,2.391-.5q4.664,0,4.664,4.746Zm11.941,0-.551-1.8h-.094a5.31,5.31,0,0,1-1.887,1.611,5.967,5.967,0,0,1-2.437.428A4.125,4.125,0,0,1,179.842-.8a3.859,3.859,0,0,1-1.072-2.918,3.426,3.426,0,0,1,1.488-3.023,8.581,8.581,0,0,1,4.535-1.113l2.238-.07v-.691a2.621,2.621,0,0,0-.58-1.857,2.366,2.366,0,0,0-1.8-.615,6.22,6.22,0,0,0-1.91.293,14.415,14.415,0,0,0-1.758.691l-.891-1.969a9.585,9.585,0,0,1,2.309-.838,10.624,10.624,0,0,1,2.367-.287,5.606,5.606,0,0,1,3.732,1.078,4.221,4.221,0,0,1,1.26,3.387V0Zm-4.1-1.875a3.411,3.411,0,0,0,2.408-.838,3.037,3.037,0,0,0,.908-2.35V-6.187l-1.664.07a5.694,5.694,0,0,0-2.83.65,1.976,1.976,0,0,0-.885,1.775,1.732,1.732,0,0,0,.516,1.342A2.215,2.215,0,0,0,183.691-1.875ZM196.559,0l-4.922-12.961h2.906l2.637,7.535a14.931,14.931,0,0,1,.82,3.07h.094a20.616,20.616,0,0,1,.82-3.07l2.637-7.535h2.93L199.535,0Zm18,0-.551-1.8h-.094a5.31,5.31,0,0,1-1.887,1.611,5.967,5.967,0,0,1-2.437.428A4.125,4.125,0,0,1,206.607-.8a3.859,3.859,0,0,1-1.072-2.918,3.426,3.426,0,0,1,1.488-3.023,8.581,8.581,0,0,1,4.535-1.113l2.238-.07v-.691a2.621,2.621,0,0,0-.58-1.857,2.366,2.366,0,0,0-1.8-.615,6.22,6.22,0,0,0-1.91.293,14.415,14.415,0,0,0-1.758.691l-.891-1.969a9.585,9.585,0,0,1,2.309-.838,10.624,10.624,0,0,1,2.367-.287,5.606,5.606,0,0,1,3.732,1.078,4.221,4.221,0,0,1,1.26,3.387V0Zm-4.1-1.875a3.411,3.411,0,0,0,2.408-.838,3.037,3.037,0,0,0,.908-2.35V-6.187l-1.664.07a5.694,5.694,0,0,0-2.83.65,1.976,1.976,0,0,0-.885,1.775,1.732,1.732,0,0,0,.516,1.342A2.215,2.215,0,0,0,210.457-1.875ZM223.125,0h-2.754V-12.961h2.754Zm-2.918-16.395a1.525,1.525,0,0,1,.4-1.137,1.575,1.575,0,0,1,1.154-.4,1.542,1.542,0,0,1,1.131.4,1.525,1.525,0,0,1,.4,1.137,1.5,1.5,0,0,1-.4,1.107,1.529,1.529,0,0,1-1.131.4,1.562,1.562,0,0,1-1.154-.4A1.5,1.5,0,0,1,220.207-16.395ZM229.816,0h-2.754V-18.234h2.754Zm12.047,0-.551-1.8h-.094a5.31,5.31,0,0,1-1.887,1.611,5.967,5.967,0,0,1-2.437.428A4.125,4.125,0,0,1,233.912-.8a3.859,3.859,0,0,1-1.072-2.918,3.426,3.426,0,0,1,1.488-3.023,8.581,8.581,0,0,1,4.535-1.113l2.238-.07v-.691a2.621,2.621,0,0,0-.58-1.857,2.366,2.366,0,0,0-1.8-.615,6.22,6.22,0,0,0-1.91.293,14.415,14.415,0,0,0-1.758.691l-.891-1.969a9.585,9.585,0,0,1,2.309-.838,10.624,10.624,0,0,1,2.367-.287,5.606,5.606,0,0,1,3.732,1.078,4.221,4.221,0,0,1,1.26,3.387V0Zm-4.1-1.875a3.411,3.411,0,0,0,2.408-.838,3.037,3.037,0,0,0,.908-2.35V-6.187l-1.664.07a5.694,5.694,0,0,0-2.83.65,1.976,1.976,0,0,0-.885,1.775,1.732,1.732,0,0,0,.516,1.342A2.215,2.215,0,0,0,237.762-1.875ZM254.3-13.2a4.5,4.5,0,0,1,3.779,1.758A7.926,7.926,0,0,1,259.43-6.5a7.951,7.951,0,0,1-1.371,4.963A4.541,4.541,0,0,1,254.25.234a4.54,4.54,0,0,1-3.82-1.77h-.187L249.738,0h-2.062V-18.234h2.754V-13.9q0,.48-.047,1.43t-.07,1.207h.117A4.373,4.373,0,0,1,254.3-13.2Zm-.715,2.25a2.8,2.8,0,0,0-2.4.979,5.693,5.693,0,0,0-.756,3.275V-6.5a6.062,6.062,0,0,0,.75,3.428,2.79,2.79,0,0,0,2.449,1.061,2.483,2.483,0,0,0,2.221-1.16,6.154,6.154,0,0,0,.756-3.352Q256.605-10.945,253.582-10.945ZM265.383,0h-2.754V-18.234h2.754Zm9.6.234a6.27,6.27,0,0,1-4.729-1.764,6.7,6.7,0,0,1-1.705-4.857,7.346,7.346,0,0,1,1.582-4.992,5.464,5.464,0,0,1,4.348-1.816,5.341,5.341,0,0,1,4.055,1.559,5.956,5.956,0,0,1,1.488,4.289v1.488h-8.637a4.257,4.257,0,0,0,1.02,2.9,3.551,3.551,0,0,0,2.707,1.014,9.993,9.993,0,0,0,2.139-.217,11.21,11.21,0,0,0,2.127-.721V-.645a8.455,8.455,0,0,1-2.039.68A12.5,12.5,0,0,1,274.98.234Zm-.5-11.344a2.767,2.767,0,0,0-2.1.832,3.965,3.965,0,0,0-.943,2.426h5.883a3.588,3.588,0,0,0-.773-2.432A2.645,2.645,0,0,0,274.477-11.109Zm8.262,9.645a1.8,1.8,0,0,1,.445-1.312,1.719,1.719,0,0,1,1.289-.457,1.7,1.7,0,0,1,1.3.475,1.817,1.817,0,0,1,.445,1.295,1.862,1.862,0,0,1-.451,1.318,1.679,1.679,0,0,1-1.295.486,1.671,1.671,0,0,1-1.289-.48A1.873,1.873,0,0,1,282.738-1.465Z" transform="translate(487 161)"/>
              <line id="Line_186" data-name="Line 186" class="cls-3" x2="632" transform="translate(486.5 184.5)"/>
              <path id="Path_329" data-name="Path 329" class="cls-2" d="M8.016-3.039A2.8,2.8,0,0,1,6.922-.687,4.743,4.743,0,0,1,3.953.156,7.436,7.436,0,0,1,.828-.367V-1.648a8.227,8.227,0,0,0,1.531.469A8.056,8.056,0,0,0,4-1.008a3.31,3.31,0,0,0,2-.5,1.654,1.654,0,0,0,.672-1.4,1.8,1.8,0,0,0-.238-.973,2.214,2.214,0,0,0-.8-.7,11.148,11.148,0,0,0-1.7-.727A5.424,5.424,0,0,1,1.66-6.664,2.984,2.984,0,0,1,.977-8.7a2.536,2.536,0,0,1,.992-2.1,4.123,4.123,0,0,1,2.625-.781,7.736,7.736,0,0,1,3.133.625L7.313-9.8a7.08,7.08,0,0,0-2.75-.594,2.661,2.661,0,0,0-1.648.453A1.493,1.493,0,0,0,2.32-8.687a1.928,1.928,0,0,0,.219.973,2.06,2.06,0,0,0,.738.7,9.173,9.173,0,0,0,1.59.7A6.294,6.294,0,0,1,7.34-4.945,2.7,2.7,0,0,1,8.016-3.039Zm9.531-1.25a4.724,4.724,0,0,1-1.055,3.27A3.714,3.714,0,0,1,13.578.156a3.86,3.86,0,0,1-2.039-.539A3.558,3.558,0,0,1,10.164-1.93,5.391,5.391,0,0,1,9.68-4.289a4.716,4.716,0,0,1,1.047-3.262,3.7,3.7,0,0,1,2.906-1.168,3.622,3.622,0,0,1,2.855,1.2A4.7,4.7,0,0,1,17.547-4.289Zm-6.523,0a4.064,4.064,0,0,0,.656,2.5,2.278,2.278,0,0,0,1.93.859,2.293,2.293,0,0,0,1.934-.855,4.043,4.043,0,0,0,.66-2.5,3.978,3.978,0,0,0-.66-2.48,2.32,2.32,0,0,0-1.949-.848,2.283,2.283,0,0,0-1.922.836A4.023,4.023,0,0,0,11.023-4.289Zm12.7-4.43a5.075,5.075,0,0,1,1.023.094l-.18,1.2a4.418,4.418,0,0,0-.937-.117,2.282,2.282,0,0,0-1.777.844,3.077,3.077,0,0,0-.738,2.1V0h-1.3V-8.562h1.07l.148,1.586H21.1A3.764,3.764,0,0,1,22.25-8.266,2.585,2.585,0,0,1,23.727-8.719Zm6.531,0a5.075,5.075,0,0,1,1.023.094l-.18,1.2a4.418,4.418,0,0,0-.937-.117,2.282,2.282,0,0,0-1.777.844,3.077,3.077,0,0,0-.738,2.1V0h-1.3V-8.562h1.07l.148,1.586h.063a3.764,3.764,0,0,1,1.148-1.289A2.585,2.585,0,0,1,30.258-8.719Zm1.266.156h1.391L34.789-3.68a18.573,18.573,0,0,1,.766,2.414h.063q.1-.4.426-1.363t2.121-5.934h1.391l-3.68,9.75A4.864,4.864,0,0,1,34.6,3.238a2.716,2.716,0,0,1-1.793.605,5.217,5.217,0,0,1-1.172-.133V2.672a4.52,4.52,0,0,0,.961.094,1.981,1.981,0,0,0,1.906-1.5L34.977.047ZM50.367,0l-.258-1.219h-.062A3.6,3.6,0,0,1,48.77-.129a3.893,3.893,0,0,1-1.59.285,2.86,2.86,0,0,1-2-.656,2.394,2.394,0,0,1-.723-1.867q0-2.594,4.148-2.719l1.453-.047v-.531a2.171,2.171,0,0,0-.434-1.488,1.783,1.783,0,0,0-1.387-.48,5.65,5.65,0,0,0-2.422.656l-.4-.992a6.094,6.094,0,0,1,1.387-.539,6.006,6.006,0,0,1,1.512-.2,3.262,3.262,0,0,1,2.27.68,2.837,2.837,0,0,1,.738,2.18V0Zm-2.93-.914a2.632,2.632,0,0,0,1.9-.664,2.457,2.457,0,0,0,.691-1.859v-.773l-1.3.055a4.717,4.717,0,0,0-2.23.48,1.449,1.449,0,0,0-.684,1.324,1.336,1.336,0,0,0,.426,1.07A1.767,1.767,0,0,0,47.438-.914ZM57.984-8.7a3.183,3.183,0,0,1,2.621,1.152,5.058,5.058,0,0,1,.934,3.262A5.1,5.1,0,0,1,60.6-1.012,3.17,3.17,0,0,1,57.984.156a3.706,3.706,0,0,1-1.527-.309A2.872,2.872,0,0,1,55.3-1.1H55.2L54.93,0H54V-12.156h1.3V-9.2q0,.992-.062,1.781H55.3A3.079,3.079,0,0,1,57.984-8.7ZM57.8-7.617a2.264,2.264,0,0,0-1.914.762A4.3,4.3,0,0,0,55.3-4.289a4.285,4.285,0,0,0,.6,2.582,2.288,2.288,0,0,0,1.93.777A2,2,0,0,0,59.609-1.8,4.477,4.477,0,0,0,60.2-4.3,4.3,4.3,0,0,0,59.609-6.8,2.076,2.076,0,0,0,57.8-7.617ZM71.2-4.289a4.724,4.724,0,0,1-1.055,3.27A3.714,3.714,0,0,1,67.227.156a3.86,3.86,0,0,1-2.039-.539A3.558,3.558,0,0,1,63.813-1.93a5.391,5.391,0,0,1-.484-2.359,4.716,4.716,0,0,1,1.047-3.262,3.7,3.7,0,0,1,2.906-1.168,3.622,3.622,0,0,1,2.855,1.2A4.7,4.7,0,0,1,71.2-4.289Zm-6.523,0a4.064,4.064,0,0,0,.656,2.5,2.278,2.278,0,0,0,1.93.859,2.293,2.293,0,0,0,1.934-.855,4.043,4.043,0,0,0,.66-2.5,3.978,3.978,0,0,0-.66-2.48,2.32,2.32,0,0,0-1.949-.848,2.283,2.283,0,0,0-1.922.836A4.023,4.023,0,0,0,64.672-4.289ZM74.688-8.562v5.555a2.235,2.235,0,0,0,.477,1.563,1.941,1.941,0,0,0,1.492.516,2.435,2.435,0,0,0,1.965-.734,3.7,3.7,0,0,0,.621-2.4v-4.5h1.3V0h-1.07l-.187-1.148h-.07a2.585,2.585,0,0,1-1.105.969,3.716,3.716,0,0,1-1.613.336,3.273,3.273,0,0,1-2.34-.742,3.159,3.159,0,0,1-.777-2.375v-5.6ZM86.055-.914a4.236,4.236,0,0,0,.664-.051,4.3,4.3,0,0,0,.508-.105v.992a2.371,2.371,0,0,1-.621.168,4.664,4.664,0,0,1-.738.066q-2.484,0-2.484-2.617V-7.555H82.156V-8.18l1.227-.539.547-1.828h.75v1.984h2.484v1.008H84.68v5.039a1.734,1.734,0,0,0,.367,1.188A1.278,1.278,0,0,0,86.055-.914Zm9.8,0a4.236,4.236,0,0,0,.664-.051,4.3,4.3,0,0,0,.508-.105v.992A2.371,2.371,0,0,1,96.41.09a4.664,4.664,0,0,1-.738.066q-2.484,0-2.484-2.617V-7.555H91.961V-8.18l1.227-.539.547-1.828h.75v1.984h2.484v1.008H94.484v5.039a1.734,1.734,0,0,0,.367,1.188A1.278,1.278,0,0,0,95.859-.914ZM104.6,0V-5.539a2.235,2.235,0,0,0-.477-1.562,1.941,1.941,0,0,0-1.492-.516,2.445,2.445,0,0,0-1.973.734,3.72,3.72,0,0,0-.621,2.406V0h-1.3V-12.156h1.3v3.68a8.018,8.018,0,0,1-.062,1.1h.078a2.645,2.645,0,0,1,1.09-.973,3.543,3.543,0,0,1,1.613-.355,3.3,3.3,0,0,1,2.355.746,3.142,3.142,0,0,1,.785,2.371V0Zm9.227,0-.258-1.219h-.062a3.6,3.6,0,0,1-1.277,1.09,3.893,3.893,0,0,1-1.59.285,2.86,2.86,0,0,1-2-.656,2.394,2.394,0,0,1-.723-1.867q0-2.594,4.148-2.719l1.453-.047v-.531a2.171,2.171,0,0,0-.434-1.488,1.783,1.783,0,0,0-1.387-.48,5.65,5.65,0,0,0-2.422.656l-.4-.992a6.094,6.094,0,0,1,1.387-.539,6.006,6.006,0,0,1,1.512-.2,3.262,3.262,0,0,1,2.27.68,2.837,2.837,0,0,1,.738,2.18V0ZM110.9-.914a2.632,2.632,0,0,0,1.9-.664,2.457,2.457,0,0,0,.691-1.859v-.773l-1.3.055a4.717,4.717,0,0,0-2.23.48,1.449,1.449,0,0,0-.684,1.324,1.336,1.336,0,0,0,.426,1.07A1.767,1.767,0,0,0,110.9-.914Zm9.328,0a4.236,4.236,0,0,0,.664-.051,4.3,4.3,0,0,0,.508-.105v.992a2.371,2.371,0,0,1-.621.168,4.664,4.664,0,0,1-.738.066q-2.484,0-2.484-2.617V-7.555h-1.227V-8.18l1.227-.539.547-1.828h.75v1.984h2.484v1.008h-2.484v5.039a1.734,1.734,0,0,0,.367,1.188A1.278,1.278,0,0,0,120.227-.914Zm2.7.086a1.164,1.164,0,0,1,.238-.793.864.864,0,0,1,.684-.27.924.924,0,0,1,.707.27,1.116,1.116,0,0,1,.254.793,1.1,1.1,0,0,1-.258.781.92.92,0,0,1-.7.273.926.926,0,0,1-.66-.246A1.07,1.07,0,0,1,122.922-.828Z" transform="translate(487 218)"/>
            </g>
            <path id="youtube" class="cls-4" d="M158.791,80.164A18.462,18.462,0,0,0,145.8,67.09C134.343,64,88.4,64,88.4,64s-45.945,0-57.4,3.09A18.462,18.462,0,0,0,18,80.164c-3.07,11.533-3.07,35.594-3.07,35.594s0,24.062,3.07,35.594a18.187,18.187,0,0,0,12.99,12.865c11.458,3.09,57.4,3.09,57.4,3.09s45.945,0,57.4-3.09a18.187,18.187,0,0,0,12.99-12.865c3.07-11.533,3.07-35.594,3.07-35.594s0-24.062-3.07-35.594Z" transform="translate(756.067 213.691)"/>
            <path id="Path_330" data-name="Path 330" class="cls-5" d="M8.5,0A8.5,8.5,0,1,1,0,8.5,8.5,8.5,0,0,1,8.5,0Z" transform="translate(814 303)"/>
            <path id="Path_331" data-name="Path 331" class="cls-5" d="M8.5,0A8.5,8.5,0,1,1,0,8.5,8.5,8.5,0,0,1,8.5,0Z" transform="translate(856 303)"/>
            <path id="Path_332" data-name="Path 332" class="cls-6" d="M0,13,59,0" transform="translate(813.5 343.5)"/>
          </g>
        </g>
      </g>
    </g>
  </g>
</svg>
