<svg xmlns="http://www.w3.org/2000/svg" viewBox="0 0 122.27 122.27">
  <g id="Group_2033" data-name="Group 2033" transform="translate(-100 -862)">
    <g id="Group_1857" data-name="Group 1857" transform="translate(-1148 572)">
      <rect id="Rectangle_2708" data-name="Rectangle 2708" width="122.27" height="122.27" rx="38" transform="translate(1248 290)" fill="#39593c"/>
    </g>
    <path id="clipboard-check-solid_1_" data-name="clipboard-check-solid (1)" d="M54.374,10.357H41.427a10.357,10.357,0,1,0-20.714,0H7.768A7.77,7.77,0,0,0,0,18.125V75.087a7.77,7.77,0,0,0,7.768,7.768H54.374a7.77,7.77,0,0,0,7.768-7.768V18.125A7.77,7.77,0,0,0,54.374,10.357Zm-23.3-3.884a3.884,3.884,0,1,1-3.884,3.884A3.875,3.875,0,0,1,31.071,6.473ZM50.684,43.984,27.543,66.931a1.944,1.944,0,0,1-2.751-.016L11.425,53.435a1.944,1.944,0,0,1,.016-2.751l4.6-4.563a1.944,1.944,0,0,1,2.751.016l7.444,7.509L43.386,36.621a1.944,1.944,0,0,1,2.751.016l4.563,4.6A1.944,1.944,0,0,1,50.684,43.984Z" transform="translate(131.532 879.043)" fill="#fff"/>
  </g>
</svg>
