<svg xmlns="http://www.w3.org/2000/svg" width="27.574" height="27.574" viewBox="0 0 27.574 27.574">
  <g id="Group_900" data-name="Group 900" transform="translate(-155.564 -349.313) rotate(45)">
    <path id="Union_64" data-name="Union 64" d="M16431,20928a2,2,0,0,1-2-2v-5a2,2,0,0,1,2-2h1v-12h-1a2,2,0,0,1-2-2v-5a2,2,0,0,1,2-2h5a2,2,0,0,1,2,2v5a2,2,0,0,1-2,2h-1v12h1a2,2,0,0,1,2,2v5a2,2,0,0,1-2,2Zm1-3h3V20922h-3Zm0-24v3h3v-3Z" transform="translate(-16057.002 -20775.998)" fill="#fff"/>
  </g>
</svg>
