<svg xmlns="http://www.w3.org/2000/svg" width="50" height="50" viewBox="0 0 50 50">
  <g id="Group_2028" data-name="Group 2028" transform="translate(-87.468 -161)">
    <rect id="Rectangle_2708" data-name="Rectangle 2708" width="50" height="50" rx="15" transform="translate(87.468 161)" fill="#ffa400"/>
    <path id="bell-solid" d="M13.687,31.286A3.91,3.91,0,0,0,17.6,27.375H9.778A3.91,3.91,0,0,0,13.687,31.286Zm13.161-9.148c-1.181-1.269-3.389-3.177-3.389-9.428a9.649,9.649,0,0,0-7.818-9.481V1.955a1.954,1.954,0,1,0-3.908,0V3.229A9.649,9.649,0,0,0,3.915,12.71c0,6.251-2.209,8.159-3.389,9.428A1.909,1.909,0,0,0,0,23.464,1.957,1.957,0,0,0,1.961,25.42H25.413a1.957,1.957,0,0,0,1.961-1.955A1.908,1.908,0,0,0,26.848,22.138Z" transform="translate(99.127 170)" fill="#fff"/>
  </g>
</svg>
