<svg xmlns="http://www.w3.org/2000/svg" viewBox="0 0 122.27 122.27">
  <g id="Group_2034" data-name="Group 2034" transform="translate(-1248 -290)">
    <rect id="Rectangle_2708" data-name="Rectangle 2708" width="122.27" height="122.27" rx="38" transform="translate(1248 290)" fill="#2f4858"/>
    <path id="chess-rook-solid" d="M60.136,32H50.985a2.615,2.615,0,0,0-2.615,2.615v7.844H40.526V34.615A2.615,2.615,0,0,0,37.912,32H24.839a2.615,2.615,0,0,0-2.615,2.615v7.844H14.4V34.615A2.615,2.615,0,0,0,11.782,32H2.615A2.615,2.615,0,0,0,0,34.615V63.375L10.458,68.6A136.251,136.251,0,0,1,8.3,94.75H54.451A136.852,136.852,0,0,1,52.292,68.6L62.75,63.375V34.615A2.615,2.615,0,0,0,60.136,32ZM36.6,79.063H26.146V68.6a5.229,5.229,0,0,1,10.458,0ZM60.136,99.98H2.615A2.615,2.615,0,0,0,0,102.594v5.229a2.615,2.615,0,0,0,2.615,2.615H60.136a2.615,2.615,0,0,0,2.615-2.615v-5.229A2.615,2.615,0,0,0,60.136,99.98Z" transform="translate(1277.5 279.5)" fill="#fff"/>
  </g>
</svg>
