<svg xmlns="http://www.w3.org/2000/svg" viewBox="0 0 122.27 122.27">
  <defs>
    <style>
      .cls-1 {
        fill: #919191;
      }

      .cls-2 {
        fill: #fff;
      }
    </style>
  </defs>
  <g id="Group_178" data-name="Group 178" transform="translate(-834.863 -413.193)">
    <rect id="Rectangle_1787" data-name="Rectangle 1787" class="cls-1" width="122.27" height="122.27" rx="42" transform="translate(834.863 413.193)"/>
    <path id="code-solid" class="cls-2" d="M34.46,63.272l-7.542-2.188A1.486,1.486,0,0,1,25.9,59.241L42.78,1.108A1.486,1.486,0,0,1,44.623.094l7.542,2.188a1.486,1.486,0,0,1,1.014,1.842L36.3,62.258A1.481,1.481,0,0,1,34.46,63.272ZM20.365,49.4l5.378-5.737a1.484,1.484,0,0,0-.1-2.127l-11.2-9.854,11.2-9.854a1.473,1.473,0,0,0,.1-2.127l-5.378-5.737a1.485,1.485,0,0,0-2.1-.062L.448,30.6a1.474,1.474,0,0,0,0,2.164l17.816,16.7a1.474,1.474,0,0,0,2.1-.062Zm40.453.074,17.816-16.7a1.474,1.474,0,0,0,0-2.164L60.819,13.892a1.5,1.5,0,0,0-2.1.062l-5.378,5.737a1.484,1.484,0,0,0,.1,2.127l11.2,9.866-11.2,9.854a1.473,1.473,0,0,0-.1,2.127L58.717,49.4a1.486,1.486,0,0,0,2.1.074Z" transform="translate(856.025 442.667)"/>
  </g>
</svg>
