<svg xmlns="http://www.w3.org/2000/svg" viewBox="0 0 122.27 122.27">
  <g id="Group_2035" data-name="Group 2035" transform="translate(-1073 -121)">
    <path id="user-graduate-solid" d="M18.4,18.448l-5.5,5.5-5.5-5.5A7.726,7.726,0,0,0,0,26.156v.553a2.766,2.766,0,0,0,2.765,2.765h20.28a2.766,2.766,0,0,0,2.765-2.765v-.553A7.726,7.726,0,0,0,18.4,18.448ZM.784,4.574l.369.086V8.025a1.331,1.331,0,0,0-.052,2.3L.2,13.919c-.1.4.121.807.438.807H3.048c.317,0,.536-.409.438-.807l-.9-3.589a1.331,1.331,0,0,0-.052-2.3V4.995l3.8.916A7.361,7.361,0,1,0,20.28,9.195a7.243,7.243,0,0,0-.807-3.284l5.548-1.337a.917.917,0,0,0,0-1.815L14.052.109a4.949,4.949,0,0,0-2.287,0L.784,2.753A.921.921,0,0,0,.784,4.574Z" transform="translate(1121.188 138.025)" fill="#fff"/>
    <rect id="Rectangle_2708" data-name="Rectangle 2708" width="122.27" height="122.27" rx="38" transform="translate(1073 121)" fill="#6b4e8d"/>
    <path id="user-graduate-solid-2" data-name="user-graduate-solid" d="M44.583,44.729,31.267,58.045,17.951,44.729A18.718,18.718,0,0,0,0,63.405v1.34a6.7,6.7,0,0,0,6.7,6.7H55.834a6.7,6.7,0,0,0,6.7-6.7v-1.34A18.718,18.718,0,0,0,44.583,44.729ZM1.9,11.117l.893.209v8.152a3.225,3.225,0,0,0-.126,5.583l-2.178,8.7c-.237.963.293,1.954,1.061,1.954H7.384c.768,0,1.3-.991,1.061-1.954l-2.178-8.7a3.225,3.225,0,0,0-.126-5.583V12.136l9.213,2.219a17.834,17.834,0,1,0,33.779,7.956,17.548,17.548,0,0,0-1.954-7.956l13.442-3.238a2.221,2.221,0,0,0,0-4.4L34.045.3A11.99,11.99,0,0,0,28.5.3L1.9,6.706A2.231,2.231,0,0,0,1.9,11.117Z" transform="translate(1103.161 146.025)" fill="#fff"/>
  </g>
</svg>
