<svg id="Layer_1" data-name="Layer 1" xmlns="http://www.w3.org/2000/svg" viewBox="0 0 122.27 122.27"><defs><style>.cls-1{fill:#124e78;}.cls-2{fill:#fcfcfc;}</style></defs><title>observe</title><g id="Observe"><rect id="Blue_rectangle" data-name="Blue rectangle" class="cls-1" width="122.27" height="122.27" rx="42"/><path id="binoculars-solid" class="cls-2" d="M83.73,31.77a2.25,2.25,0,0,0-2.26-2.25h-9a2.25,2.25,0,0,0-2.26,2.24h0v6.78H83.73ZM34,47.58C33.65,60.84,25.48,63.7,25,82v6.21a4.5,4.5,0,0,0,4.5,4.52H43.08a4.51,4.51,0,0,0,4.51-4.51h0V65.65h4.52V43.06H38.54A4.55,4.55,0,0,0,34,47.58Zm54.22,0a4.56,4.56,0,0,0-4.5-4.52H70.18V65.65H74.7V88.23a4.52,4.52,0,0,0,4.51,4.52H92.77a4.52,4.52,0,0,0,4.51-4.52V82c-.49-18.32-8.66-21.19-9-34.44ZM49.84,29.52h-9a2.25,2.25,0,0,0-2.25,2.25h0v6.78H52.12V31.77a2.25,2.25,0,0,0-2.26-2.25Zm6.79,36.13h9V43.06h-9Z"/></g></svg>