<svg xmlns="http://www.w3.org/2000/svg" viewBox="0 0 122.27 122.27">
  <defs>
    <style>
      .cls-1 {
        fill: #bc5050;
      }

      .cls-2 {
        fill: #fff;
      }
    </style>
  </defs>
  <g id="Group_177" data-name="Group 177" transform="translate(-639.863 -413.193)">
    <path id="Path_315" data-name="Path 315" class="cls-1" d="M42,0H80.27a42,42,0,0,1,42,42V80.27a42,42,0,0,1-42,42H42a42,42,0,0,1-42-42V42A42,42,0,0,1,42,0Z" transform="translate(639.863 413.193)"/>
    <path id="adminimg" class="cls-2" d="M72.678,58.407l-6.543-6.543a4.627,4.627,0,0,0-3.272-1.355H55.524V38.941A6.94,6.94,0,0,0,48.584,32H25.449a6.941,6.941,0,0,0-6.941,6.941V50.508H11.17A4.63,4.63,0,0,0,7.9,51.863L1.355,58.407A4.627,4.627,0,0,0,0,61.68V73.643H18.508V71.33a2.313,2.313,0,0,1,2.314-2.314h4.627a2.313,2.313,0,0,1,2.314,2.314v2.314H46.27V71.33a2.313,2.313,0,0,1,2.314-2.314h4.627a2.313,2.313,0,0,1,2.314,2.314v2.314H74.033V61.678A4.626,4.626,0,0,0,72.678,58.407Zm-26.407-7.9H27.762V41.254H46.27Zm9.254,30.076A2.313,2.313,0,0,1,53.211,82.9H48.584a2.313,2.313,0,0,1-2.314-2.314V78.27H27.762v2.314A2.313,2.313,0,0,1,25.449,82.9H20.822a2.313,2.313,0,0,1-2.314-2.314V78.27H0V92.152a4.628,4.628,0,0,0,4.627,4.627H69.406a4.628,4.628,0,0,0,4.627-4.627V78.27H55.524Z" transform="translate(664 405.221)"/>
  </g>
</svg>
